<?xml version="1.0" standalone="no"?>
<svg viewBox="0 0 200 200" xmlns="http://www.w3.org/2000/svg">
  <path fill="#0EA5E9" d="M38.3,-66.3C45.7,-54.7,45.2,-37.6,51,-23.7C56.8,-9.7,68.9,0.9,71.8,13.4C74.8,25.8,68.6,40,59.8,53.8C50.9,67.7,39.4,81.3,26.5,80.7C13.6,80.1,-0.6,65.4,-14,57.1C-27.4,48.9,-39.9,47.1,-51.8,40.8C-63.8,34.4,-75.3,23.4,-80.1,9.7C-84.9,-4,-83,-20.6,-74.4,-31.8C-65.9,-43,-50.6,-49,-37.1,-57.8C-23.5,-66.5,-11.8,-78.1,1.8,-80.9C15.4,-83.8,30.8,-77.8,38.3,-66.3Z" transform="translate(100 100)" />
</svg>
